<?xml version="1.0" encoding="iso-8859-1"?>
<!-- Generator: Adobe Illustrator 19.0.0, SVG Export Plug-In . SVG Version: 6.00 Build 0)  -->
<svg version="1.1" id="Layer_1" xmlns="http://www.w3.org/2000/svg" xmlns:xlink="http://www.w3.org/1999/xlink" x="0px" y="0px"
	 viewBox="0 0 512 512" style="enable-background:new 0 0 512 512;" xml:space="preserve">
<g>
	<g>
		<g>
			<path d="M365.986,0h-78.536h-94.535h-7.022c-44.853,0-81.344,36.491-81.344,81.344v349.312c0,44.853,36.491,81.344,81.344,81.344
				h7.022H306.61h59.376c22.863,0,41.464-18.602,41.464-41.466V41.466C407.451,18.602,388.85,0,365.986,0z M155.548,488.499
				c-20.786-10.95-34.998-32.762-34.998-57.843V81.344c0-25.081,14.212-46.893,34.998-57.843
				c-2.625,5.438-4.097,11.533-4.097,17.965v429.069C151.451,476.967,152.923,483.061,155.548,488.499z M391.45,470.534
				c0,14.042-11.423,25.465-25.464,25.465H306.61H192.915c-14.041,0-25.464-11.423-25.464-25.465V41.466
				c0-14.042,11.423-25.465,25.464-25.465h94.535h78.536c14.041,0,25.464,11.423,25.464,25.465V470.534z"/>
			<rect x="175.447" y="248" width="208.003" height="15.999"/>
			<rect x="127.451" y="248" width="15.999" height="15.999"/>
		</g>
	</g>
</g>
<g>
</g>
<g>
</g>
<g>
</g>
<g>
</g>
<g>
</g>
<g>
</g>
<g>
</g>
<g>
</g>
<g>
</g>
<g>
</g>
<g>
</g>
<g>
</g>
<g>
</g>
<g>
</g>
<g>
</g>
</svg>
